<?xml version="1.0" encoding="UTF-8"?>
<svg version="1.1" xmlns="http://www.w3.org/2000/svg" width="32" height="32">
<path d="M0 0 C10.56 0 21.12 0 32 0 C32 10.56 32 21.12 32 32 C21.44 32 10.88 32 0 32 C0 21.44 0 10.88 0 0 Z " fill="#F4FBE4" transform="translate(0,0)"/>
<path d="M0 0 C5.28 0 10.56 0 16 0 C9.62222222 5.10222222 9.62222222 5.10222222 4 5 C2.68 3.35 1.36 1.7 0 0 Z " fill="#BDFDD8" transform="translate(2,0)"/>
<path d="M0 0 C0.66 0 1.32 0 2 0 C2 1.98 2 3.96 2 6 C0.02 5.34 -1.96 4.68 -4 4 C-4 3.01 -4 2.02 -4 1 C-3.01 1.33 -2.02 1.66 -1 2 C-0.67 1.34 -0.34 0.68 0 0 Z " fill="#9FCB96" transform="translate(17,13)"/>
</svg>
